<?xml version="1.0" standalone="no"?>
<!DOCTYPE svg PUBLIC "-//W3C//DTD SVG 20010904//EN"
 "http://www.w3.org/TR/2001/REC-SVG-20010904/DTD/svg10.dtd">
<svg version="1.0" xmlns="http://www.w3.org/2000/svg"
 width="500.000000pt" height="500.000000pt" viewBox="0 0 500.000000 500.000000"
 preserveAspectRatio="xMidYMid meet">
<metadata>
Created by potrace 1.11, written by Peter Selinger 2001-2013
</metadata>
<g transform="translate(0.000000,500.000000) scale(0.100000,-0.100000)"
fill="#000000" stroke="none">
<path d="M0 2500 l0 -2500 2500 0 2500 0 0 2500 0 2500 -2500 0 -2500 0 0
-2500z m4370 -35 l0 -1865 -1870 0 -1870 0 0 1865 0 1865 1870 0 1870 0 0
-1865z"/>
<path d="M740 2465 l0 -1755 1760 0 1760 0 0 1755 0 1755 -1760 0 -1760 0 0
-1755z m1994 1085 c257 -88 395 -375 306 -634 -97 -282 -413 -411 -688 -281
-244 115 -349 402 -239 656 40 91 148 198 245 241 113 51 262 58 376 18z
m-1344 -185 l0 -195 170 0 170 0 0 195 0 195 90 0 90 0 0 -480 0 -480 -90 0
-90 0 0 200 0 200 -170 0 -170 0 0 -200 0 -200 -90 0 -90 0 0 480 0 480 90 0
90 0 0 -195z m2229 184 c122 -26 191 -111 191 -238 0 -82 -17 -136 -52 -172
l-29 -28 29 -15 c131 -68 151 -300 35 -407 -75 -71 -157 -89 -398 -89 l-185 0
0 480 0 480 180 0 c98 0 201 -5 229 -11z m-2117 -1545 l3 -206 148 206 148
206 100 0 c78 0 98 -3 93 -12 -4 -7 -79 -109 -167 -227 -87 -118 -161 -219
-163 -226 -3 -7 72 -119 165 -249 94 -130 171 -239 171 -241 0 -3 -45 -5 -99
-5 l-100 0 -143 205 c-79 112 -146 205 -150 205 -5 0 -8 -92 -8 -205 l0 -205
-85 0 -85 0 0 480 0 480 85 0 85 0 2 -206z m828 -9 c57 -118 107 -215 110
-215 3 0 52 96 107 213 l101 212 97 3 c58 2 96 -1 93 -7 -1 -5 -104 -221 -228
-480 l-225 -471 -98 0 c-117 0 -116 -22 -11 196 l74 156 -106 211 c-59 117
-129 254 -156 305 l-50 92 95 0 94 0 103 -215z m1231 -250 c98 -253 182 -468
185 -477 5 -16 -3 -18 -75 -18 l-80 0 -19 53 c-83 219 -255 653 -261 660 -4 4
-67 -155 -141 -353 l-133 -360 -88 0 -87 0 47 123 c26 67 110 283 186 480
l138 358 74 -3 75 -3 179 -460z"/>
<path d="M2509 3400 c-148 -25 -259 -159 -259 -314 0 -92 25 -159 82 -222 79
-85 179 -120 294 -102 104 16 186 78 233 178 34 73 36 201 4 271 -43 96 -131
167 -231 188 -58 12 -57 12 -123 1z"/>
<path d="M3390 3289 l0 -101 89 4 c113 4 144 23 149 87 6 81 -39 111 -170 111
l-68 0 0 -101z"/>
<path d="M3390 2895 l0 -127 108 4 c61 3 119 10 135 18 81 39 73 172 -11 207
-20 8 -80 18 -134 21 l-98 5 0 -128z"/>
</g>
</svg>
